<svg xmlns="http://www.w3.org/2000/svg" xmlns:xlink="http://www.w3.org/1999/xlink" xmlns:lucid="lucid" width="1768.5" height="1242"><g transform="translate(227.5 -79)" lucid:page-tab-id="0_0"><path d="M-220 86a6 6 0 0 1 6-6h1748a6 6 0 0 1 6 6v1228a6 6 0 0 1-6 6H-214a6 6 0 0 1-6-6z" stroke="#3a414a" stroke-width="2" fill="#c3f7c8"/><path d="M910 140c16.57 0 30 13.43 30 30s-13.43 30-30 30H410c-16.57 0-30-13.43-30-30s13.43-30 30-30z" stroke="#3a414a" stroke-width="2" fill="#cfe4ff"/><use xlink:href="#a" transform="matrix(1,0,0,1,385,145) translate(222.86783854166669 34.02777777777778)"/><use xlink:href="#b" transform="matrix(1,0,0,1,385,145) translate(282.23198784722223 34.02777777777778)"/><path d="M800 280c27.6 0 50 22.4 50 50s-22.4 50-50 50H520c-27.6 0-50-22.4-50-50s22.4-50 50-50z" stroke="#3a414a" stroke-width="2" fill="#6db1ff"/><use xlink:href="#c" transform="matrix(1,0,0,1,475,285) translate(126.22808159722223 52.46527777777778)"/><use xlink:href="#d" transform="matrix(1,0,0,1,475,285) translate(175.95681423611111 52.46527777777778)"/><path d="M540 346a6 6 0 0 1 6-6h228a6 6 0 0 1 6 6v28a6 6 0 0 1-6 6H546a6 6 0 0 1-6-6z" fill="none"/><use xlink:href="#e" transform="matrix(1,0,0,1,540,340) translate(89.25347222222223 26.46701388888889)"/><use xlink:href="#f" transform="matrix(1,0,0,1,540,340) translate(139.9045138888889 26.46701388888889)"/><path d="M127.5 506.32a6 6 0 0 1 6-6h518a6 6 0 0 1 6 6v368a6 6 0 0 1-6 6h-518a6 6 0 0 1-6-6z" stroke="#3a414a" stroke-width="2" fill="#e3fae3"/><path d="M437.14 540.32c16.77 0 30.36 13.6 30.36 30.36 0 16.77-13.6 30.36-30.36 30.36h-89.28c-16.77 0-30.36-13.6-30.36-30.36 0-16.77 13.6-30.36 30.36-30.36z" stroke="#3a414a" stroke-width="2" fill="#6db1ff"/><use xlink:href="#g" transform="matrix(1,0,0,1,322.5,545.3213541666672) translate(45.91971354166667 21.444444444444446)"/><use xlink:href="#h" transform="matrix(1,0,0,1,322.5,545.3213541666672) translate(43.101788194444445 40.266059027777786)"/><use xlink:href="#i" transform="matrix(1,0,0,1,322.5,545.3213541666672) translate(87.42144965277778 40.266059027777786)"/><path d="M272.5 670.32c11.05 0 20 8.96 20 20 0 11.05-8.95 20-20 20h-60c-11.05 0-20-8.95-20-20 0-11.04 8.95-20 20-20z" stroke="#3a414a" stroke-width="2" fill="#fff"/><use xlink:href="#j" transform="matrix(1,0,0,1,197.5,675.3213541666671) translate(17.813159722222228 23.40277777777778)"/><use xlink:href="#k" transform="matrix(1,0,0,1,197.5,675.3213541666671) translate(63.15821180555555 23.40277777777778)"/><path d="M372.5 670.32c11.05 0 20 8.96 20 20 0 11.05-8.95 20-20 20h-60c-11.05 0-20-8.95-20-20 0-11.04 8.95-20 20-20z" stroke="#3a414a" stroke-width="2" fill="#54c45e"/><use xlink:href="#j" transform="matrix(1,0,0,1,297.5,675.3213541666671) translate(15.556215277777783 23.40277777777778)"/><use xlink:href="#l" transform="matrix(1,0,0,1,297.5,675.3213541666671) translate(60.90126736111111 23.40277777777778)"/><path d="M572.5 670.32c11.05 0 20 8.96 20 20 0 11.05-8.95 20-20 20h-60c-11.05 0-20-8.95-20-20 0-11.04 8.95-20 20-20z" stroke="#3a414a" stroke-width="2" fill="#fff"/><use xlink:href="#j" transform="matrix(1,0,0,1,497.5,675.3213541666671) translate(13.961163194444447 23.40277777777778)"/><use xlink:href="#m" transform="matrix(1,0,0,1,497.5,675.3213541666671) translate(59.306215277777774 23.40277777777778)"/><path d="M472.5 670.32c11.05 0 20 8.96 20 20 0 11.05-8.95 20-20 20h-60c-11.05 0-20-8.95-20-20 0-11.04 8.95-20 20-20z" stroke="#3a414a" stroke-width="2" fill="#54c45e"/><use xlink:href="#j" transform="matrix(1,0,0,1,397.5,675.3213541666671) translate(15.469409722222226 23.40277777777778)"/><use xlink:href="#n" transform="matrix(1,0,0,1,397.5,675.3213541666671) translate(60.81446180555555 23.40277777777778)"/><path d="M392.5 602.54v1.63m0 2.17v3.26m0 2.17v3.26m0 2.17v3.25m0 2.18v3.25m0 2.17v1.63l-.07.94-.1.46m-.73 1.73l-.25.4-.6.72-.72.62-.4.24m-1.73.72l-.46.1-.94.08h-1.52m-2.02 0h-3.03m-2.02 0h-3.02m-2.02 0h-3.04m-2.02 0h-3.03m-2.02 0h-3.03m-2.02 0h-3.04m-2.02 0h-3.03m-2 0h-3.04m-2.02 0h-3.04m-2.02 0h-3.03m-2.02 0h-3.03m-2.02 0h-3.04m-2.02 0h-3.03m-2.03 0h-3.03m-2.02 0h-3.04m-2.02 0h-3.03m-2.02 0h-3.02m-2.02 0h-3.04m-2.02 0h-3.03m-2.02 0h-3.03m-2.02 0h-3.04m-2.02 0h-3.03m-2 0h-3.04m-2.02 0h-3.04m-2.02 0h-1.5l-.95.08-.46.1m-1.73.72l-.4.25-.72.6-.6.73-.25.4m-.72 1.73l-.1.44-.08.94v1.7m0 2.24V649m0 2.25v1.7" stroke="#3a414a" fill="none"/><path d="M392.98 602.56h-.96v-.52h.96z" stroke="#3a414a" stroke-width=".05" fill="#3a414a"/><path d="M254.17 667.7l-4.64-14.26h9.27z" stroke="#3a414a" fill="#3a414a"/><path d="M392.5 602.54v27.14a6 6 0 0 1-6 6h-38a6 6 0 0 0-6 6v11.26" stroke="#3a414a" fill="none"/><path d="M392.98 602.56h-.96v-.52h.96z" stroke="#3a414a" stroke-width=".05" fill="#3a414a"/><path d="M342.5 667.7l-4.63-14.26h9.26z" stroke="#3a414a" fill="#3a414a"/><path d="M392.5 602.54v27.14a6 6 0 0 0 6 6h38a6 6 0 0 1 6 6v11.26" stroke="#3a414a" fill="none"/><path d="M392.98 602.56h-.96v-.52h.96z" stroke="#3a414a" stroke-width=".05" fill="#3a414a"/><path d="M442.5 667.7l-4.63-14.26h9.26z" stroke="#3a414a" fill="#3a414a"/><path d="M392.5 602.54v1.63m0 2.17v3.26m0 2.17v3.26m0 2.17v3.25m0 2.18v3.25m0 2.17v1.63l.07.94.1.46m.73 1.73l.25.4.6.72.72.62.4.24m1.73.72l.46.1.94.08h1.48m1.97 0h2.96m1.98 0h2.96m1.97 0h2.96m1.98 0h2.95m1.96 0h2.96m1.97 0h2.95m1.97 0h2.96m1.97 0h2.96m1.98 0h2.96m1.97 0h2.96m1.98 0h2.95m1.96 0h2.96m1.97 0h2.95m1.97 0h2.96m1.97 0h2.96m1.98 0h2.96m1.97 0h2.96m1.98 0h2.95m1.96 0h2.96m1.97 0h2.95m1.97 0h2.96m1.97 0h2.96m1.98 0h2.96m1.97 0h2.96m1.98 0h2.95m1.96 0h2.96m1.97 0h2.95m1.97 0h1.48l.94.08.46.1m1.73.72l.4.25.7.6.62.73.25.4m.72 1.73l.1.44.08.94v1.7m0 2.24V649m0 2.25v1.7" stroke="#3a414a" fill="none"/><path d="M392.98 602.56h-.96v-.52h.96z" stroke="#3a414a" stroke-width=".05" fill="#3a414a"/><path d="M542.5 667.7l-4.63-14.26h9.26z" stroke="#3a414a" fill="#3a414a"/><path d="M107.5 506.32a6 6 0 0 1 6-6h228a6 6 0 0 1 6 6v48a6 6 0 0 1-6 6h-228a6 6 0 0 1-6-6z" fill="none"/><use xlink:href="#o" transform="matrix(1,0,0,1,107.5,500.3213541666672) translate(51.391059027777786 38.083767361111114)"/><use xlink:href="#p" transform="matrix(1,0,0,1,107.5,500.3213541666672) translate(120.57508680555556 38.083767361111114)"/><path d="M486.46 775.92c17.68 0 32 14.33 32 32s-14.33 32-32 32H298.54c-17.68 0-32-14.33-32-32s14.32-32 32-32z" stroke="#3a414a" stroke-width="2" fill="#ffe342"/><path d="M285.92 807.52a6 6 0 0 1 6-6H473.7a6 6 0 0 1 6 6v13.6a6 6 0 0 1-6 6H291.92a6 6 0 0 1-6-6z" fill="none"/><use xlink:href="#q" transform="matrix(1,0,0,1,285.9171597633135,801.5213541666672) translate(10.563368055555571 18.65863715277778)"/><use xlink:href="#r" transform="matrix(1,0,0,1,285.9171597633135,801.5213541666672) translate(84.58138020833334 18.65863715277778)"/><use xlink:href="#s" transform="matrix(1,0,0,1,285.9171597633135,801.5213541666672) translate(119.99153645833334 18.65863715277778)"/><use xlink:href="#t" transform="matrix(1,0,0,1,285.9171597633135,801.5213541666672) translate(139.451171875 18.65863715277778)"/><path d="M311.75 781.92a6 6 0 0 1 6-6H460.8a6 6 0 0 1 6 6v26.4a6 6 0 0 1-6 6H317.74a6 6 0 0 1-6-6z" fill="none"/><use xlink:href="#u" transform="matrix(1,0,0,1,311.7554240631164,775.921354166667) translate(4.3617621527777715 25.15863715277778)"/><use xlink:href="#v" transform="matrix(1,0,0,1,311.7554240631164,775.921354166667) translate(58.73025173611111 25.15863715277778)"/><path d="M342.5 711.82v25.8a6 6 0 0 0 6 6h37a6 6 0 0 1 6 6v9.92" stroke="#3a414a" fill="none"/><path d="M342.98 711.83h-.96v-.5h.96z" stroke="#3a414a" stroke-width=".05" fill="#3a414a"/><path d="M391.5 774.3l-4.63-14.26h9.26z" stroke="#3a414a" fill="#3a414a"/><path d="M442.5 711.82v25.3a6 6 0 0 1-6 6h-38a6 6 0 0 0-6 6v9.42" stroke="#3a414a" fill="none"/><path d="M442.98 711.83h-.96v-.5h.96z" stroke="#3a414a" stroke-width=".05" fill="#3a414a"/><path d="M392.5 773.3l-4.63-14.26h9.26z" stroke="#3a414a" fill="#3a414a"/><path d="M660 201.5v61.12" stroke="#3a414a" fill="none"/><path d="M660.48 201.5h-.96v-.5h.96z" stroke="#3a414a" stroke-width=".05" fill="#3a414a"/><path d="M660 277.38l-4.63-14.26h9.26z" stroke="#3a414a" fill="#3a414a"/><path d="M-100 501.92a6 6 0 0 1 6-6H54a6 6 0 0 1 6 6v108a6 6 0 0 1-6 6H-94a6 6 0 0 1-6-6z" stroke="#3a414a" stroke-width="2" fill="#fff"/><use xlink:href="#w" transform="matrix(1,0,0,1,-88,507.92135416666673) translate(26.338758680555557 57.52777777777778)"/><use xlink:href="#k" transform="matrix(1,0,0,1,-88,507.92135416666673) translate(100.62261284722221 57.52777777777778)"/><path d="M1320 506.32a6 6 0 0 1 6-6h148a6 6 0 0 1 6 6v108a6 6 0 0 1-6 6h-148a6 6 0 0 1-6-6z" stroke="#3a414a" stroke-width="2" fill="#fff"/><use xlink:href="#w" transform="matrix(1,0,0,1,1332,512.3213541666669) translate(24.293402777777786 57.52777777777778)"/><use xlink:href="#x" transform="matrix(1,0,0,1,1332,512.3213541666669) translate(98.57725694444444 57.52777777777778)"/><path d="M660 380.5v53.16a6 6 0 0 1-6 6H388.5a6 6 0 0 0-6 6v37.28" stroke="#3a414a" fill="none"/><path d="M660.48 380.5h-.96v-.5h.96z" stroke="#3a414a" stroke-width=".05" fill="#3a414a"/><path d="M382.5 497.7l-4.63-14.26h9.26z" stroke="#3a414a" fill="#3a414a"/><path d="M660 381.5v1.25m0 1.67v2.5m0 1.66v2.5m0 1.67V394l-.07.94-.1.46m-.73 1.73l-.25.4-.6.7-.72.62-.4.25m-1.73.72l-.46.1-.94.08h-1.5m-2 0h-2.98m-2 0h-3m-2 0h-2.98m-2 0h-3m-1.98 0h-3m-2 0h-2.98m-2 0h-3m-2 0h-2.98m-2 0h-3m-1.98 0h-3m-2 0h-2.98m-2 0h-3m-1.98 0h-3m-2 0h-2.98m-2 0h-3m-2 0h-2.98m-2 0h-3m-1.98 0h-3m-2 0h-2.98m-2 0h-3m-1.98 0h-3m-2 0h-3m-1.98 0h-3m-2 0h-2.98m-2 0h-3m-1.98 0h-3m-2 0h-2.98m-2 0h-3m-2 0h-2.98m-2 0h-3m-1.98 0h-3m-2 0h-2.98m-2 0h-3m-1.98 0h-3m-2 0h-2.98m-2 0h-3m-2 0h-2.98m-2 0h-3m-1.98 0h-3m-2 0H453m-2 0h-3m-2 0h-2.98m-2 0h-2.98m-2 0h-3m-2 0h-2.98m-2 0h-3m-1.98 0h-3m-2 0h-2.98m-2 0h-3m-2 0h-2.98m-2 0h-3m-1.98 0h-3m-2 0h-2.98m-2 0h-3m-2 0h-2.98m-2 0h-3m-1.98 0h-3m-2 0h-2.98m-2 0h-3m-1.98 0h-3m-2 0h-2.98m-2 0h-3m-2 0h-2.98m-2 0h-3m-1.98 0h-3m-2 0h-2.98m-2 0h-3m-1.98 0h-3m-2 0h-2.98m-2 0h-3m-2 0h-2.98m-2 0h-3m-1.98 0h-3m-2 0h-2.98m-2 0h-3m-2 0h-2.98m-2 0h-3m-1.98 0h-3m-2 0h-2.98m-2 0h-3m-1.98 0h-3m-2 0h-2.98m-2 0h-3m-2 0h-2.98m-2 0h-3m-1.98 0h-3m-2 0h-2.98m-2 0h-3m-2 0h-2.98m-2 0h-2.98m-2 0h-3m-2 0h-2.98m-2 0h-3m-1.98 0h-3m-2 0h-2.98m-2 0h-3m-2 0h-2.98m-2 0h-3m-1.98 0h-3m-2 0h-2.98m-2 0h-3m-1.98 0h-3m-2 0h-2.98m-2 0h-3m-2 0h-2.98m-2 0h-3m-1.98 0h-3m-2 0h-2.98m-2 0h-3m-2 0h-2.98m-2 0h-3m-1.98 0h-3m-2 0H88.9m-2 0h-3m-1.98 0h-3m-2 0h-2.98m-2 0h-3m-2 0h-2.98m-2 0h-3M57 400h-3m-2 0H49m-2 0h-3m-1.98 0h-3m-2 0h-3m-1.98 0h-3m-2 0h-2.98m-2 0h-3m-1.98 0h-3m-2 0H9.1m-2 0h-3m-2 0H-.87m-2 0h-3m-1.98 0h-3m-2 0h-2.98m-2 0h-1.5l-.93.07-.46.1m-1.73.73l-.4.25-.72.6-.6.72-.25.4m-.72 1.73l-.1.46-.08.94v1.45m0 1.94v2.9m0 1.92v2.9m0 1.94v2.9m0 1.93v2.9m0 1.93v2.9m0 1.93v2.9m0 1.94v2.9m0 1.94v2.9m0 1.93v2.9m0 1.94v2.9m0 1.94v2.9m0 1.94v2.9m0 1.94v2.9m0 1.93v2.9m0 1.94v1.44" stroke="#3a414a" fill="none"/><path d="M660.48 381.5h-.96v-.5h.96z" stroke="#3a414a" stroke-width=".05" fill="#3a414a"/><path d="M-25.33 493.3l-4.64-14.26h9.27z" stroke="#3a414a" fill="#3a414a"/><path d="M660 381.5v1.25m0 1.67v2.5m0 1.66v2.5m0 1.67V394l.07.94.1.46m.73 1.73l.25.4.6.7.72.62.4.25m1.73.72l.46.1.94.08h1.5m2 0h2.98m2 0h3m1.98 0h3m2 0h2.98m2 0h3m1.98 0h3m2 0h2.98m2 0h3m1.98 0h3m2 0h2.98m2 0h3m1.98 0h3m2 0h2.98m2 0h2.98m2 0h3m2 0h2.98m2 0h2.98m2 0h3m1.98 0h3m2 0h2.98m2 0h3m1.98 0h3m2 0h2.98m2 0h3m1.98 0h3m2 0h2.98m2 0h3m1.98 0h3m2 0h2.98m2 0h3m1.98 0h3m2 0h2.98m2 0h2.98m2 0h3m2 0H842m2 0H847m2 0h3m1.98 0h3m2 0h2.98m2 0h3m1.98 0h3m2 0h2.98m2 0h3m1.98 0h3m2 0h2.98m2 0h3m1.98 0h3m2 0h2.98m2 0h3m1.98 0h3m1.98 0h3m2 0h2.98m2 0h3m1.98 0h3m2 0h2.98m2 0h3m1.98 0h3m2 0h2.98m2 0h3m1.98 0h3m2 0h2.98m2 0h3m1.98 0h3m2 0h2.98m2 0h3m1.98 0h3m2 0h2.98m2 0h2.98m2 0h3m2 0h2.98m2 0h2.98m2 0h3m1.98 0h3m2 0h2.98m2 0h3m1.98 0h3m2 0h2.98m2 0h3m1.98 0h3m2 0h2.98m2 0h3m1.98 0h3m2 0h2.98m2 0h3m1.98 0h3m2 0h2.98m2 0h2.98m2 0h3m2 0h2.98m2 0h2.98m2 0h3m1.98 0h3m2 0h2.98m2 0h3m1.98 0h3m2 0h2.98m2 0h3m1.98 0h3m2 0h2.98m2 0h3m1.98 0h3m2 0h2.98m2 0h3m1.98 0h3m2 0h2.98m2 0h2.98m2 0h3m2 0h2.98m2 0h2.98m2 0h3m1.98 0h3m2 0h2.98m2 0h3m1.98 0h3m2 0h2.98m2 0h3m1.98 0h3m2 0h2.98m2 0h3m1.98 0h3m2 0h2.98m2 0h3m1.98 0h3m2 0h2.98m2 0h2.98m2 0h3m1.98 0h3m2 0h2.98m2 0h3m1.98 0h3m2 0h2.98m2 0h3m1.98 0h3m2 0h2.98m2 0h3m1.98 0h3m2 0h2.98m2 0h3m1.98 0h3m2 0h2.98m2 0h2.98m2 0h3m2 0h2.98m2 0h2.98m2 0h3m1.98 0h1.5l.94.07.46.1m1.72.73l.4.25.72.6.6.72.26.4m.72 1.73l.1.46.08.94v1.54m0 2.05v3.07m0 2.05v3.08m0 2.05v3.08m0 2.05v3.07m0 2.06v3.08m0 2.06v3.07m0 2.06v3.08m0 2.06v3.07m0 2.05v3.08m0 2.05v3.08m0 2.05v3.08m0 2.05v3.1m0 2.04v3.08m0 2.05v3.08m0 2.05v1.54" stroke="#3a414a" fill="none"/><path d="M660.48 381.5h-.96v-.5h.96z" stroke="#3a414a" stroke-width=".05" fill="#3a414a"/><path d="M1400 497.7l-4.63-14.26h9.27z" stroke="#3a414a" fill="#3a414a"/><path d="M712.5 506.32a6 6 0 0 1 6-6h518a6 6 0 0 1 6 6v368a6 6 0 0 1-6 6h-518a6 6 0 0 1-6-6z" stroke="#3a414a" stroke-width="2" fill="#e3fae3"/><path d="M1022.14 540.32c16.77 0 30.36 13.6 30.36 30.36 0 16.77-13.6 30.36-30.36 30.36h-89.28c-16.77 0-30.36-13.6-30.36-30.36 0-16.77 13.6-30.36 30.36-30.36z" stroke="#3a414a" stroke-width="2" fill="#6db1ff"/><use xlink:href="#g" transform="matrix(1,0,0,1,907.5,545.321354166667) translate(45.91971354166667 21.444444444444446)"/><use xlink:href="#h" transform="matrix(1,0,0,1,907.5,545.321354166667) translate(43.101788194444445 40.266059027777786)"/><use xlink:href="#i" transform="matrix(1,0,0,1,907.5,545.321354166667) translate(87.42144965277778 40.266059027777786)"/><path d="M857.5 670.32c11.05 0 20 8.96 20 20 0 11.05-8.95 20-20 20h-60c-11.05 0-20-8.95-20-20 0-11.04 8.95-20 20-20z" stroke="#3a414a" stroke-width="2" fill="#fff"/><use xlink:href="#j" transform="matrix(1,0,0,1,782.5,675.3213541666669) translate(17.813159722222228 23.40277777777778)"/><use xlink:href="#k" transform="matrix(1,0,0,1,782.5,675.3213541666669) translate(63.15821180555555 23.40277777777778)"/><path d="M957.5 670.32c11.05 0 20 8.96 20 20 0 11.05-8.95 20-20 20h-60c-11.05 0-20-8.95-20-20 0-11.04 8.95-20 20-20z" stroke="#3a414a" stroke-width="2" fill="#54c45e"/><use xlink:href="#j" transform="matrix(1,0,0,1,882.5,675.3213541666669) translate(15.556215277777783 23.40277777777778)"/><use xlink:href="#l" transform="matrix(1,0,0,1,882.5,675.3213541666669) translate(60.90126736111111 23.40277777777778)"/><path d="M1157.5 670.32c11.05 0 20 8.96 20 20 0 11.05-8.95 20-20 20h-60c-11.05 0-20-8.95-20-20 0-11.04 8.95-20 20-20z" stroke="#3a414a" stroke-width="2" fill="#fff"/><use xlink:href="#j" transform="matrix(1,0,0,1,1082.5,675.3213541666669) translate(13.961163194444447 23.40277777777778)"/><use xlink:href="#m" transform="matrix(1,0,0,1,1082.5,675.3213541666669) translate(59.306215277777774 23.40277777777778)"/><path d="M1057.5 670.32c11.05 0 20 8.96 20 20 0 11.05-8.95 20-20 20h-60c-11.05 0-20-8.95-20-20 0-11.04 8.95-20 20-20z" stroke="#3a414a" stroke-width="2" fill="#54c45e"/><use xlink:href="#j" transform="matrix(1,0,0,1,982.5,675.3213541666669) translate(15.469409722222226 23.40277777777778)"/><use xlink:href="#n" transform="matrix(1,0,0,1,982.5,675.3213541666669) translate(60.81446180555555 23.40277777777778)"/><path d="M977.5 602.54v1.63m0 2.17v3.26m0 2.17v3.26m0 2.17v3.25m0 2.18v3.25m0 2.17v1.63l-.07.94-.1.46m-.73 1.73l-.25.4-.6.72-.72.62-.4.24m-1.73.72l-.46.1-.94.08h-1.52m-2.02 0h-3.03m-2.02 0h-3.02m-2.02 0h-3.04m-2.02 0h-3.03m-2.02 0h-3.03m-2.02 0h-3.04m-2.02 0h-3.03m-2 0h-3.04m-2.02 0h-3.04m-2.02 0h-3.03m-2.02 0h-3.03m-2.02 0h-3.04m-2.02 0h-3.03m-2.03 0h-3.03m-2.02 0h-3.04m-2.02 0h-3.03m-2.02 0h-3.02m-2.02 0h-3.04m-2.02 0h-3.03m-2.02 0h-3.03m-2.02 0h-3.04m-2.02 0h-3.03m-2 0h-3.04m-2.02 0h-3.04m-2.02 0h-1.5l-.95.08-.46.1m-1.73.72l-.4.25-.72.6-.6.73-.25.4m-.72 1.73l-.1.44-.08.94v1.7m0 2.24V649m0 2.25v1.7" stroke="#3a414a" fill="none"/><path d="M977.98 602.56H977v-.52h.96z" stroke="#3a414a" stroke-width=".05" fill="#3a414a"/><path d="M839.17 667.7l-4.64-14.26h9.27z" stroke="#3a414a" fill="#3a414a"/><path d="M977.5 602.54v27.14a6 6 0 0 1-6 6h-38a6 6 0 0 0-6 6v11.26" stroke="#3a414a" fill="none"/><path d="M977.98 602.56H977v-.52h.96z" stroke="#3a414a" stroke-width=".05" fill="#3a414a"/><path d="M927.5 667.7l-4.63-14.26h9.26z" stroke="#3a414a" fill="#3a414a"/><path d="M977.5 602.54v27.14a6 6 0 0 0 6 6h38a6 6 0 0 1 6 6v11.26" stroke="#3a414a" fill="none"/><path d="M977.98 602.56H977v-.52h.96z" stroke="#3a414a" stroke-width=".05" fill="#3a414a"/><path d="M1027.5 667.7l-4.63-14.26h9.26z" stroke="#3a414a" fill="#3a414a"/><path d="M977.5 602.54v1.63m0 2.17v3.26m0 2.17v3.26m0 2.17v3.25m0 2.18v3.25m0 2.17v1.63l.07.94.1.46m.73 1.73l.25.4.6.72.72.62.4.24m1.73.72l.46.1.94.08h1.48m1.97 0h2.96m1.98 0h2.96m1.97 0h2.96m1.98 0h2.95m1.96 0h2.96m1.97 0h2.95m1.97 0h2.96m1.97 0h2.96m1.98 0h2.96m1.97 0h2.96m1.98 0h2.95m1.96 0h2.96m1.97 0h2.95m1.97 0h2.96m1.97 0h2.96m1.98 0h2.96m1.97 0h2.96m1.98 0h2.95m1.96 0h2.96m1.97 0h2.95m1.97 0h2.96m1.97 0h2.96m1.98 0h2.96m1.97 0h2.96m1.98 0h2.95m1.96 0h2.96m1.97 0h2.95m1.97 0h1.48l.94.08.46.1m1.72.72l.4.25.72.6.6.73.26.4m.72 1.73l.1.44.08.94v1.7m0 2.24V649m0 2.25v1.7" stroke="#3a414a" fill="none"/><path d="M977.98 602.56H977v-.52h.96z" stroke="#3a414a" stroke-width=".05" fill="#3a414a"/><path d="M1127.5 667.7l-4.63-14.26h9.27z" stroke="#3a414a" fill="#3a414a"/><path d="M692.5 506.32a6 6 0 0 1 6-6h228a6 6 0 0 1 6 6v48a6 6 0 0 1-6 6h-228a6 6 0 0 1-6-6z" fill="none"/><use xlink:href="#y" transform="matrix(1,0,0,1,692.5,500.3213541666671) translate(47.45768229166667 38.083767361111114)"/><use xlink:href="#p" transform="matrix(1,0,0,1,692.5,500.3213541666671) translate(124.50846354166667 38.083767361111114)"/><path d="M1071.46 775.92c17.67 0 32 14.33 32 32s-14.33 32-32 32H883.54c-17.67 0-32-14.33-32-32s14.33-32 32-32z" stroke="#3a414a" stroke-width="2" fill="#ffe342"/><path d="M870.92 807.52a6 6 0 0 1 6-6h181.78a6 6 0 0 1 6 6v13.6a6 6 0 0 1-6 6H876.92a6 6 0 0 1-6-6z" fill="none"/><use xlink:href="#q" transform="matrix(1,0,0,1,870.9171597633135,801.5213541666669) translate(10.563368055555571 18.65863715277778)"/><use xlink:href="#r" transform="matrix(1,0,0,1,870.9171597633135,801.5213541666669) translate(84.58138020833334 18.65863715277778)"/><use xlink:href="#s" transform="matrix(1,0,0,1,870.9171597633135,801.5213541666669) translate(119.99153645833334 18.65863715277778)"/><use xlink:href="#t" transform="matrix(1,0,0,1,870.9171597633135,801.5213541666669) translate(139.451171875 18.65863715277778)"/><path d="M896.75 781.92a6 6 0 0 1 6-6h143.04a6 6 0 0 1 6 6v26.4a6 6 0 0 1-6 6H902.75a6 6 0 0 1-6-6z" fill="none"/><g><use xlink:href="#u" transform="matrix(1,0,0,1,896.7554240631164,775.9213541666668) translate(4.3617621527777715 25.15863715277778)"/><use xlink:href="#v" transform="matrix(1,0,0,1,896.7554240631164,775.9213541666668) translate(58.73025173611111 25.15863715277778)"/></g><path d="M927.5 711.82v25.8a6 6 0 0 0 6 6h37a6 6 0 0 1 6 6v9.92" stroke="#3a414a" fill="none"/><path d="M927.98 711.83H927v-.5h.96z" stroke="#3a414a" stroke-width=".05" fill="#3a414a"/><path d="M976.5 774.3l-4.63-14.26h9.26z" stroke="#3a414a" fill="#3a414a"/><path d="M1027.5 711.82v25.3a6 6 0 0 1-6 6h-38a6 6 0 0 0-6 6v9.42" stroke="#3a414a" fill="none"/><path d="M1027.97 711.83h-.94v-.5h.94z" stroke="#3a414a" stroke-width=".05" fill="#3a414a"/><path d="M977.5 773.3l-4.63-14.26h9.26z" stroke="#3a414a" fill="#3a414a"/><path d="M660 380.5v53.16a6 6 0 0 0 6 6h305.5a6 6 0 0 1 6 6v37.28" stroke="#3a414a" fill="none"/><path d="M660.48 380.5h-.96v-.5h.96z" stroke="#3a414a" stroke-width=".05" fill="#3a414a"/><path d="M977.5 497.7l-4.63-14.26h9.26z" stroke="#3a414a" fill="#3a414a"/><path d="M856.75 1010c22.1 0 40 17.9 40 40s-17.9 40-40 40H485.8c-22.1 0-40-17.9-40-40s17.9-40 40-40z" stroke="#3a414a" stroke-width="2" fill="#fcce14"/><g><use xlink:href="#z" transform="matrix(1,0,0,1,450.7938856015778,1015) translate(126.26714409722223 43.40277777777778)"/><use xlink:href="#A" transform="matrix(1,0,0,1,450.7938856015778,1015) translate(182.00716145833334 43.40277777777778)"/></g><path d="M921.27 1200c16.57 0 30 13.43 30 30s-13.43 30-30 30h-500c-16.56 0-30-13.43-30-30s13.44-30 30-30z" stroke="#3a414a" stroke-width="2" fill="#cfe4ff"/><g><use xlink:href="#B" transform="matrix(1,0,0,1,396.2746548323471,1205) translate(181.1252170138889 34.02777777777778)"/><use xlink:href="#C" transform="matrix(1,0,0,1,396.2746548323471,1205) translate(297.4555121527778 34.02777777777778)"/></g><path d="M671.27 992.62v-41.46a6 6 0 0 0-6-6H398.5a6 6 0 0 1-6-6v-57.34" stroke="#3a414a" fill="none"/><path d="M671.27 1007.38l-4.63-14.26h9.27z" stroke="#3a414a" fill="#3a414a"/><path d="M392.98 881.83h-.96v-.5h.96z" stroke="#3a414a" stroke-width=".05" fill="#3a414a"/><path d="M671.27 992.62v-41.46a6 6 0 0 1 6-6H971.5a6 6 0 0 0 6-6v-57.34" stroke="#3a414a" fill="none"/><path d="M671.27 1007.38l-4.63-14.26h9.27z" stroke="#3a414a" fill="#3a414a"/><path d="M977.98 881.83H977v-.5h.96z" stroke="#3a414a" stroke-width=".05" fill="#3a414a"/><path d="M671.27 1091.5v91.12" stroke="#3a414a" fill="none"/><path d="M671.75 1091.5h-.95v-.5h.95z" stroke="#3a414a" stroke-width=".05" fill="#3a414a"/><path d="M671.27 1197.38l-4.63-14.26h9.27z" stroke="#3a414a" fill="#3a414a"/><path d="M-227.5 106a6 6 0 0 1 6-6h608a6 6 0 0 1 6 6v88a6 6 0 0 1-6 6h-608a6 6 0 0 1-6-6z" fill="none"/><g><use xlink:href="#D" transform="matrix(1,0,0,1,-227.5,100) translate(50.04448784722217 61.31727430555556)"/><use xlink:href="#E" transform="matrix(1,0,0,1,-227.5,100) translate(199.2198350694444 61.31727430555556)"/><use xlink:href="#F" transform="matrix(1,0,0,1,-227.5,100) translate(305.6629774305555 61.31727430555556)"/><use xlink:href="#G" transform="matrix(1,0,0,1,-227.5,100) translate(385.0054253472222 61.31727430555556)"/></g><defs><path d="M370-1490V0H180v-1490h190" id="H"/><path d="M338-670V0H158v-1118h173l1 207c72-158 192-221 342-221 226 0 378 139 378 422V0H872v-695c0-172-96-275-252-275-161 0-282 109-282 300" id="I"/><path d="M158 418v-1536h174v179h20c37-59 106-193 324-193 279 0 474 222 474 576 0 356-194 580-473 580-213 0-288-135-325-197h-14v591H158zm492-555c209 0 317-186 317-421 0-232-105-413-317-413-206 0-314 166-314 413 0 249 111 421 314 421" id="J"/><path d="M537 14c-226 0-379-139-379-422v-710h180v695c0 172 97 275 253 275 160 0 281-109 281-300v-670h181V0H879v-209C806-46 684 14 537 14" id="K"/><path d="M598-1118v154H368v674c0 100 37 144 132 144 23 0 62-6 92-12L629-6c-37 13-88 20-134 20-193 0-307-107-307-290v-688H20v-154h168v-266h180v266h230" id="L"/><g id="a"><use transform="matrix(0.010850694444444444,0,0,0.010850694444444444,0,0)" xlink:href="#H"/><use transform="matrix(0.010850694444444444,0,0,0.010850694444444444,5.967881944444445,0)" xlink:href="#I"/><use transform="matrix(0.010850694444444444,0,0,0.010850694444444444,19.09722222222222,0)" xlink:href="#J"/><use transform="matrix(0.010850694444444444,0,0,0.010850694444444444,32.70399305555556,0)" xlink:href="#K"/><use transform="matrix(0.010850694444444444,0,0,0.010850694444444444,45.84418402777778,0)" xlink:href="#L"/></g><path d="M98-1322v-168h1126v168H757V0H567v-1322H98" id="M"/><path d="M628 24c-324 0-524-230-524-574 0-343 198-582 503-582 237 0 487 146 487 559v75H286c9 234 145 362 343 362 132 0 231-58 273-172l174 48C1024-91 857 24 628 24zM287-650h624c-17-190-120-322-304-322-192 0-309 151-320 322" id="N"/><path d="M65 0l393-574-370-544h210c88 136 192 297 267 435 67-142 176-302 264-435h206L661-564 1053 0H844c-94-144-206-310-287-458C484-308 366-142 273 0H65" id="O"/><g id="b"><use transform="matrix(0.010850694444444444,0,0,0.010850694444444444,0,0)" xlink:href="#M"/><use transform="matrix(0.010850694444444444,0,0,0.010850694444444444,12.608506944444445,0)" xlink:href="#N"/><use transform="matrix(0.010850694444444444,0,0,0.010850694444444444,25.065104166666664,0)" xlink:href="#O"/><use transform="matrix(0.010850694444444444,0,0,0.010850694444444444,37.63020833333333,0)" xlink:href="#L"/></g><path d="M180 0v-1490h528c311 0 458 177 458 395 0 191-114 278-244 313v14c139 9 302 137 302 371 0 225-148 397-499 397H180zm190-168h350c232 0 321-102 321-231 0-149-120-277-311-277H370v508zm0-668h328c160 0 286-101 286-255 0-129-87-231-280-231H370v486" id="P"/><path d="M158 0v-1118h174v172h12c41-113 157-188 290-188 26 0 70 2 91 3v181c-11-2-60-10-108-10-161 0-279 109-279 260V0H158" id="Q"/><g id="c"><use transform="matrix(0.010850694444444444,0,0,0.010850694444444444,0,0)" xlink:href="#P"/><use transform="matrix(0.010850694444444444,0,0,0.010850694444444444,14.539930555555555,0)" xlink:href="#N"/><use transform="matrix(0.010850694444444444,0,0,0.010850694444444444,27.49565972222222,0)" xlink:href="#Q"/><use transform="matrix(0.010850694444444444,0,0,0.010850694444444444,36.20876736111111,0)" xlink:href="#L"/></g><path d="M180 0v-1490h510c348 0 508 194 508 460 0 198-88 351-276 417L1256 0h-220L726-579c-117 2-238 0-356 1V0H180zm190-747h312c235 0 327-108 327-283 0-177-92-293-329-293H370v576" id="R"/><path d="M613 24c-304 0-509-231-509-576 0-350 205-580 509-580 305 0 511 230 511 580 0 345-206 576-511 576zm0-161c226 0 329-195 329-415 0-222-103-419-329-419-223 0-326 196-326 419 0 220 103 415 326 415" id="S"/><g id="d"><use transform="matrix(0.010850694444444444,0,0,0.010850694444444444,0,0)" xlink:href="#R"/><use transform="matrix(0.010850694444444444,0,0,0.010850694444444444,13.975694444444445,0)" xlink:href="#S"/><use transform="matrix(0.010850694444444444,0,0,0.010850694444444444,27.30034722222222,0)" xlink:href="#K"/><use transform="matrix(0.010850694444444444,0,0,0.010850694444444444,40.44053819444444,0)" xlink:href="#L"/><use transform="matrix(0.010850694444444444,0,0,0.010850694444444444,47.49348958333333,0)" xlink:href="#N"/><use transform="matrix(0.010850694444444444,0,0,0.010850694444444444,60.44921875,0)" xlink:href="#Q"/></g><path d="M934 0v166H0V0h934" id="T"/><path d="M158 0v-1490h180v865h22l478-493h223L593-638 1096 0H865L456-523 338-412V0H158" id="U"/><g id="e"><use transform="matrix(0.008680555555555556,0,0,0.008680555555555556,0,0)" xlink:href="#L"/><use transform="matrix(0.008680555555555556,0,0,0.008680555555555556,5.642361111111112,0)" xlink:href="#S"/><use transform="matrix(0.008680555555555556,0,0,0.008680555555555556,16.302083333333336,0)" xlink:href="#J"/><use transform="matrix(0.008680555555555556,0,0,0.008680555555555556,27.187500000000004,0)" xlink:href="#T"/><use transform="matrix(0.008680555555555556,0,0,0.008680555555555556,35.89409722222223,0)" xlink:href="#U"/></g><path d="M154 0v-137l495-537c165-179 249-281 249-418 0-156-121-253-280-253-170 0-278 110-278 278H158c0-264 200-443 465-443 266 0 455 183 455 416 0 161-73 288-336 568L416-179v12h687V0H154" id="V"/><use transform="matrix(0.008680555555555556,0,0,0.008680555555555556,0,0)" xlink:href="#V" id="f"/><g id="g"><use transform="matrix(0.007595486111111112,0,0,0.007595486111111112,0,0)" xlink:href="#R"/><use transform="matrix(0.007595486111111112,0,0,0.007595486111111112,9.78298611111111,0)" xlink:href="#S"/><use transform="matrix(0.007595486111111112,0,0,0.007595486111111112,19.110243055555557,0)" xlink:href="#K"/><use transform="matrix(0.007595486111111112,0,0,0.007595486111111112,28.308376736111114,0)" xlink:href="#L"/><use transform="matrix(0.007595486111111112,0,0,0.007595486111111112,33.245442708333336,0)" xlink:href="#N"/><use transform="matrix(0.007595486111111112,0,0,0.007595486111111112,42.314453125,0)" xlink:href="#Q"/></g><g id="h"><use transform="matrix(0.007595486111111112,0,0,0.007595486111111112,0,0)" xlink:href="#L"/><use transform="matrix(0.007595486111111112,0,0,0.007595486111111112,4.937065972222222,0)" xlink:href="#S"/><use transform="matrix(0.007595486111111112,0,0,0.007595486111111112,14.264322916666668,0)" xlink:href="#J"/><use transform="matrix(0.007595486111111112,0,0,0.007595486111111112,23.7890625,0)" xlink:href="#T"/><use transform="matrix(0.007595486111111112,0,0,0.007595486111111112,31.407335069444446,0)" xlink:href="#U"/></g><use transform="matrix(0.007595486111111112,0,0,0.007595486111111112,0,0)" xlink:href="#V" id="i"/><path d="M180 0v-1490h908v168H370v486h669v168H370v500h727V0H180" id="W"/><g id="j"><use transform="matrix(0.010850694444444444,0,0,0.010850694444444444,0,0)" xlink:href="#W"/><use transform="matrix(0.010850694444444444,0,0,0.010850694444444444,13.35720486111111,0)" xlink:href="#O"/><use transform="matrix(0.010850694444444444,0,0,0.010850694444444444,25.48828125,0)" xlink:href="#J"/></g><path d="M653-1490V0H466v-1314h-10L96-1047v-204l324-239h233" id="X"/><use transform="matrix(0.010850694444444444,0,0,0.010850694444444444,0,0)" xlink:href="#X" id="k"/><use transform="matrix(0.010850694444444444,0,0,0.010850694444444444,0,0)" xlink:href="#V" id="l"/><path d="M180 0v-1490h224l606 953c40 63 108 177 176 312-27-437-7-821-13-1265h190V0h-226C860-448 622-778 356-1262c27 476 11 792 15 1262H180" id="Y"/><use transform="matrix(0.010850694444444444,0,0,0.010850694444444444,0,0)" xlink:href="#Y" id="m"/><path d="M635 20c-292 0-500-160-510-396h192c11 142 145 229 315 229 187 0 323-105 323-260 0-161-125-274-346-274H488v-165h121c174 0 294-100 294-254 0-148-104-245-266-245-152 0-291 85-297 230H157c8-234 222-395 484-395 278 0 448 188 448 400 0 168-95 291-247 336v12c190 31 301 169 301 357 0 244-216 425-508 425" id="Z"/><use transform="matrix(0.010850694444444444,0,0,0.010850694444444444,0,0)" xlink:href="#Z" id="n"/><path d="M538 24C308 24 148-78 108-271l171-41c32 123 123 178 257 178 156 0 256-77 256-169 0-77-54-128-164-154l-186-44c-203-48-300-148-300-305 0-192 176-326 414-326 230 0 351 112 402 269l-163 42c-31-80-94-158-238-158-133 0-233 69-233 162 0 83 57 129 188 160l169 40c203 48 298 149 298 302 0 196-179 339-441 339" id="aa"/><g id="o"><use transform="matrix(0.010850694444444444,0,0,0.010850694444444444,0,0)" xlink:href="#Y"/><use transform="matrix(0.010850694444444444,0,0,0.010850694444444444,16.74262152777778,0)" xlink:href="#K"/><use transform="matrix(0.010850694444444444,0,0,0.010850694444444444,29.8828125,0)" xlink:href="#Q"/><use transform="matrix(0.010850694444444444,0,0,0.010850694444444444,38.248697916666664,0)" xlink:href="#aa"/><use transform="matrix(0.010850694444444444,0,0,0.010850694444444444,49.97829861111111,0)" xlink:href="#N"/></g><g id="p"><use transform="matrix(0.010850694444444444,0,0,0.010850694444444444,0,0)" xlink:href="#W"/><use transform="matrix(0.010850694444444444,0,0,0.010850694444444444,13.35720486111111,0)" xlink:href="#O"/><use transform="matrix(0.010850694444444444,0,0,0.010850694444444444,25.48828125,0)" xlink:href="#J"/><use transform="matrix(0.010850694444444444,0,0,0.010850694444444444,39.09505208333333,0)" xlink:href="#N"/><use transform="matrix(0.010850694444444444,0,0,0.010850694444444444,52.050781249999986,0)" xlink:href="#Q"/><use transform="matrix(0.010850694444444444,0,0,0.010850694444444444,60.76388888888888,0)" xlink:href="#L"/></g><path d="M458 0L52-1490h194c108 439 233 855 324 1313 92-459 221-873 331-1313h216c110 438 234 854 330 1307 92-455 216-869 323-1307h196L1558 0h-221l-256-944c-26-95-50-200-73-331-22 122-44 223-73 331L680 0H458" id="ab"/><path d="M158 0v-1118h180V0H158zm91-1301c-68 0-125-53-125-119s57-119 125-119c69 0 126 53 126 119s-57 119-126 119" id="ac"/><path d="M611 442c-248 0-391-105-460-228l146-94c47 65 117 165 314 165 178 0 307-82 307-266v-224h-17C863-141 792-18 576-18c-268 0-472-195-472-546 0-346 197-568 476-568 216 0 288 133 326 193h17v-179h175V29c0 289-215 413-487 413zm-5-620c203 0 314-146 314-390 0-237-108-403-314-403-213 0-319 180-319 403 0 230 109 390 319 390" id="ad"/><path d="M338-670V0H158v-1490h180v566c73-149 190-208 336-208 226 0 379 139 379 422V0H872v-695c0-172-96-275-252-275-161 0-282 109-282 300" id="ae"/><path d="M577 24c-279 0-473-224-473-580 0-354 195-576 474-576 218 0 287 134 324 193h14v-551h180V0H922v-173h-20C865-111 790 24 577 24zm27-161c203 0 314-172 314-421 0-247-108-413-314-413-212 0-317 181-317 413 0 235 108 421 317 421" id="af"/><g id="q"><use transform="matrix(0.007595486111111112,0,0,0.007595486111111112,0,0)" xlink:href="#ab"/><use transform="matrix(0.007595486111111112,0,0,0.007595486111111112,14.537760416666668,0)" xlink:href="#N"/><use transform="matrix(0.007595486111111112,0,0,0.007595486111111112,23.606770833333336,0)" xlink:href="#ac"/><use transform="matrix(0.007595486111111112,0,0,0.007595486111111112,27.374131944444446,0)" xlink:href="#ad"/><use transform="matrix(0.007595486111111112,0,0,0.007595486111111112,36.9140625,0)" xlink:href="#ae"/><use transform="matrix(0.007595486111111112,0,0,0.007595486111111112,46.11219618055556,0)" xlink:href="#L"/><use transform="matrix(0.007595486111111112,0,0,0.007595486111111112,51.04926215277778,0)" xlink:href="#N"/><use transform="matrix(0.007595486111111112,0,0,0.007595486111111112,60.11827256944444,0)" xlink:href="#af"/></g><path d="M158 0v-1118h175l1 205c55-151 181-225 313-225 147 0 245 90 285 228 53-141 190-228 352-228 194 0 352 125 352 384V0h-181v-749c0-161-105-225-225-225-151 0-243 103-243 244V0H807v-767c0-124-93-207-219-207-131 0-250 92-250 270V0H158" id="ag"/><g id="r"><use transform="matrix(0.007595486111111112,0,0,0.007595486111111112,0,0)" xlink:href="#aa"/><use transform="matrix(0.007595486111111112,0,0,0.007595486111111112,8.210720486111112,0)" xlink:href="#K"/><use transform="matrix(0.007595486111111112,0,0,0.007595486111111112,17.40885416666667,0)" xlink:href="#ag"/></g><path d="M678-1118v154H420V0H240v-964H20v-154h220v-149c0-194 155-293 318-293 85 0 141 18 168 30l-50 154c-19-6-47-17-97-17-111 0-159 58-159 166v109h258" id="ah"/><g id="s"><use transform="matrix(0.007595486111111112,0,0,0.007595486111111112,0,0)" xlink:href="#S"/><use transform="matrix(0.007595486111111112,0,0,0.007595486111111112,9.327256944444445,0)" xlink:href="#ah"/></g><path d="M471 26C259 26 90-98 90-318c0-256 228-303 435-329 202-27 287-16 287-108 0-139-79-219-234-219-161 0-248 86-283 164l-173-57c86-203 278-265 451-265 150 0 419 46 419 395V0H815v-152h-12C765-73 660 26 471 26zm31-159c199 0 310-134 310-271v-155c-30 35-226 55-295 64-131 17-246 59-246 186 0 116 97 176 231 176" id="ai"/><path d="M613 24c-304 0-509-231-509-576 0-350 205-580 509-580 216 0 392 114 453 309l-173 49c-33-115-133-197-280-197-223 0-326 196-326 419 0 220 103 415 326 415 150 0 252-85 285-206l172 49C1010-95 832 24 613 24" id="aj"/><path d="M481 0L54-1118h197c107 314 236 620 325 951 87-331 217-637 324-951h197L670 0H481" id="ak"/><g id="t"><use transform="matrix(0.007595486111111112,0,0,0.007595486111111112,0,0)" xlink:href="#ai"/><use transform="matrix(0.007595486111111112,0,0,0.007595486111111112,8.734809027777779,0)" xlink:href="#aj"/><use transform="matrix(0.007595486111111112,0,0,0.007595486111111112,17.62152777777778,0)" xlink:href="#L"/><use transform="matrix(0.007595486111111112,0,0,0.007595486111111112,22.71050347222222,0)" xlink:href="#ac"/><use transform="matrix(0.007595486111111112,0,0,0.007595486111111112,26.477864583333332,0)" xlink:href="#ak"/><use transform="matrix(0.007595486111111112,0,0,0.007595486111111112,34.91644965277778,0)" xlink:href="#N"/></g><path d="M784 20c-382 0-662-292-662-764 0-473 280-766 662-766s660 293 660 766c0 472-278 764-660 764zm0-176c266 0 475-207 475-588 0-383-209-590-475-590-268 0-477 208-477 590 0 380 209 588 477 588" id="al"/><g id="u"><use transform="matrix(0.007595486111111112,0,0,0.007595486111111112,0,0)" xlink:href="#al"/><use transform="matrix(0.007595486111111112,0,0,0.007595486111111112,11.894531250000002,0)" xlink:href="#K"/><use transform="matrix(0.007595486111111112,0,0,0.007595486111111112,21.092664930555557,0)" xlink:href="#L"/><use transform="matrix(0.007595486111111112,0,0,0.007595486111111112,26.181640625,0)" xlink:href="#J"/><use transform="matrix(0.007595486111111112,0,0,0.007595486111111112,35.706380208333336,0)" xlink:href="#K"/><use transform="matrix(0.007595486111111112,0,0,0.007595486111111112,44.90451388888889,0)" xlink:href="#L"/></g><path d="M783 20c-382 0-661-292-661-764 0-473 279-766 661-766 302 0 548 182 601 489h-190c-42-204-217-313-411-313-268 0-476 208-476 590 0 381 209 588 476 588 195 0 369-110 411-313h190c-52 303-296 489-601 489" id="am"/><path d="M677 24c-213 0-288-135-325-197h-20V0H158v-1490h180v551h14c37-59 106-193 324-193 279 0 474 222 474 576 0 356-194 580-473 580zm-27-161c209 0 317-186 317-421 0-232-105-413-317-413-206 0-314 166-314 413 0 249 111 421 314 421" id="an"/><g id="v"><use transform="matrix(0.007595486111111112,0,0,0.007595486111111112,0,0)" xlink:href="#am"/><use transform="matrix(0.007595486111111112,0,0,0.007595486111111112,11.362847222222223,0)" xlink:href="#S"/><use transform="matrix(0.007595486111111112,0,0,0.007595486111111112,20.690104166666668,0)" xlink:href="#ag"/><use transform="matrix(0.007595486111111112,0,0,0.007595486111111112,34.31640625,0)" xlink:href="#an"/><use transform="matrix(0.007595486111111112,0,0,0.007595486111111112,43.841145833333336,0)" xlink:href="#ac"/><use transform="matrix(0.007595486111111112,0,0,0.007595486111111112,47.60850694444445,0)" xlink:href="#I"/><use transform="matrix(0.007595486111111112,0,0,0.007595486111111112,56.79904513888889,0)" xlink:href="#ai"/><use transform="matrix(0.007595486111111112,0,0,0.007595486111111112,65.53385416666667,0)" xlink:href="#L"/><use transform="matrix(0.007595486111111112,0,0,0.007595486111111112,70.62282986111111,0)" xlink:href="#ac"/><use transform="matrix(0.007595486111111112,0,0,0.007595486111111112,74.39019097222223,0)" xlink:href="#S"/><use transform="matrix(0.007595486111111112,0,0,0.007595486111111112,83.71744791666667,0)" xlink:href="#I"/></g><g id="w"><use transform="matrix(0.010850694444444444,0,0,0.010850694444444444,0,0)" xlink:href="#W"/><use transform="matrix(0.010850694444444444,0,0,0.010850694444444444,13.35720486111111,0)" xlink:href="#O"/><use transform="matrix(0.010850694444444444,0,0,0.010850694444444444,25.48828125,0)" xlink:href="#J"/><use transform="matrix(0.010850694444444444,0,0,0.010850694444444444,39.09505208333333,0)" xlink:href="#N"/><use transform="matrix(0.010850694444444444,0,0,0.010850694444444444,52.050781249999986,0)" xlink:href="#Q"/><use transform="matrix(0.010850694444444444,0,0,0.010850694444444444,60.76388888888888,0)" xlink:href="#L"/></g><use transform="matrix(0.010850694444444444,0,0,0.010850694444444444,0,0)" xlink:href="#I" id="x"/><path d="M645 0H180v-1490h484c435 0 692 280 692 742 0 466-257 748-711 748zM370-168h263c363 0 539-218 539-580 0-358-176-574-521-574H370v1154" id="ao"/><g id="y"><use transform="matrix(0.010850694444444444,0,0,0.010850694444444444,0,0)" xlink:href="#ao"/><use transform="matrix(0.010850694444444444,0,0,0.010850694444444444,16.03732638888889,0)" xlink:href="#S"/><use transform="matrix(0.010850694444444444,0,0,0.010850694444444444,29.361979166666664,0)" xlink:href="#aj"/><use transform="matrix(0.010850694444444444,0,0,0.010850694444444444,42.057291666666664,0)" xlink:href="#L"/><use transform="matrix(0.010850694444444444,0,0,0.010850694444444444,49.11024305555556,0)" xlink:href="#S"/><use transform="matrix(0.010850694444444444,0,0,0.010850694444444444,62.43489583333333,0)" xlink:href="#Q"/></g><path d="M180 0v-1490h901v168H370v510h643v168H370V0H180" id="ap"/><path d="M338-1490V0H158v-1490h180" id="aq"/><g id="z"><use transform="matrix(0.010850694444444444,0,0,0.010850694444444444,0,0)" xlink:href="#ap"/><use transform="matrix(0.010850694444444444,0,0,0.010850694444444444,13.118489583333332,0)" xlink:href="#ac"/><use transform="matrix(0.010850694444444444,0,0,0.010850694444444444,18.50043402777778,0)" xlink:href="#I"/><use transform="matrix(0.010850694444444444,0,0,0.010850694444444444,31.62977430555556,0)" xlink:href="#ai"/><use transform="matrix(0.010850694444444444,0,0,0.010850694444444444,44.10807291666667,0)" xlink:href="#aq"/></g><g id="A"><use transform="matrix(0.010850694444444444,0,0,0.010850694444444444,0,0)" xlink:href="#am"/><use transform="matrix(0.010850694444444444,0,0,0.010850694444444444,16.23263888888889,0)" xlink:href="#S"/><use transform="matrix(0.010850694444444444,0,0,0.010850694444444444,29.557291666666664,0)" xlink:href="#ag"/><use transform="matrix(0.010850694444444444,0,0,0.010850694444444444,49.0234375,0)" xlink:href="#an"/><use transform="matrix(0.010850694444444444,0,0,0.010850694444444444,62.63020833333333,0)" xlink:href="#ac"/><use transform="matrix(0.010850694444444444,0,0,0.010850694444444444,68.01215277777777,0)" xlink:href="#I"/><use transform="matrix(0.010850694444444444,0,0,0.010850694444444444,81.14149305555554,0)" xlink:href="#ai"/><use transform="matrix(0.010850694444444444,0,0,0.010850694444444444,93.61979166666666,0)" xlink:href="#L"/><use transform="matrix(0.010850694444444444,0,0,0.010850694444444444,100.88975694444441,0)" xlink:href="#ac"/><use transform="matrix(0.010850694444444444,0,0,0.010850694444444444,106.27170138888887,0)" xlink:href="#S"/><use transform="matrix(0.010850694444444444,0,0,0.010850694444444444,119.59635416666664,0)" xlink:href="#I"/></g><path d="M789 20c-398 0-667-293-667-764 0-473 273-766 655-766 315 0 558 198 612 487h-196c-61-191-204-311-415-311-262 0-471 207-471 590 0 380 208 588 482 588 249 0 420-165 425-427H828v-166h572v163c0 370-256 606-611 606" id="ar"/><g id="B"><use transform="matrix(0.010850694444444444,0,0,0.010850694444444444,0,0)" xlink:href="#ar"/><use transform="matrix(0.010850694444444444,0,0,0.010850694444444444,16.57986111111111,0)" xlink:href="#N"/><use transform="matrix(0.010850694444444444,0,0,0.010850694444444444,29.535590277777775,0)" xlink:href="#I"/><use transform="matrix(0.010850694444444444,0,0,0.010850694444444444,42.66493055555556,0)" xlink:href="#N"/><use transform="matrix(0.010850694444444444,0,0,0.010850694444444444,55.62065972222222,0)" xlink:href="#Q"/><use transform="matrix(0.010850694444444444,0,0,0.010850694444444444,63.986545138888886,0)" xlink:href="#ai"/><use transform="matrix(0.010850694444444444,0,0,0.010850694444444444,76.46484375,0)" xlink:href="#L"/><use transform="matrix(0.010850694444444444,0,0,0.010850694444444444,83.51779513888889,0)" xlink:href="#N"/><use transform="matrix(0.010850694444444444,0,0,0.010850694444444444,96.47352430555556,0)" xlink:href="#af"/></g><g id="C"><use transform="matrix(0.010850694444444444,0,0,0.010850694444444444,0,0)" xlink:href="#al"/><use transform="matrix(0.010850694444444444,0,0,0.010850694444444444,16.9921875,0)" xlink:href="#K"/><use transform="matrix(0.010850694444444444,0,0,0.010850694444444444,30.13237847222222,0)" xlink:href="#L"/><use transform="matrix(0.010850694444444444,0,0,0.010850694444444444,37.40234375,0)" xlink:href="#J"/><use transform="matrix(0.010850694444444444,0,0,0.010850694444444444,51.00911458333333,0)" xlink:href="#K"/><use transform="matrix(0.010850694444444444,0,0,0.010850694444444444,64.14930555555554,0)" xlink:href="#L"/></g><path d="M180 0v-1490h190v644h782v-644h190V0h-190v-678H370V0H180" id="as"/><path d="M140 405l46-156c120 36 205 19 263-150l32-93L54-1118h197c107 313 237 620 324 950 87-331 219-637 326-950h196L606 167c-68 178-176 259-334 259-64 0-113-12-132-21" id="at"/><g id="D"><use transform="matrix(0.015190972222222224,0,0,0.015190972222222224,0,0)" xlink:href="#as"/><use transform="matrix(0.015190972222222224,0,0,0.015190972222222224,23.120659722222225,0)" xlink:href="#K"/><use transform="matrix(0.015190972222222224,0,0,0.015190972222222224,41.51692708333334,0)" xlink:href="#ag"/><use transform="matrix(0.015190972222222224,0,0,0.015190972222222224,68.76953125000001,0)" xlink:href="#ai"/><use transform="matrix(0.015190972222222224,0,0,0.015190972222222224,86.23914930555557,0)" xlink:href="#I"/><use transform="matrix(0.015190972222222224,0,0,0.015190972222222224,104.62022569444446,0)" xlink:href="#ac"/><use transform="matrix(0.015190972222222224,0,0,0.015190972222222224,112.15494791666669,0)" xlink:href="#L"/><use transform="matrix(0.015190972222222224,0,0,0.015190972222222224,122.94053819444446,0)" xlink:href="#at"/></g><g id="E"><use transform="matrix(0.015190972222222224,0,0,0.015190972222222224,0,0)" xlink:href="#as"/><use transform="matrix(0.015190972222222224,0,0,0.015190972222222224,23.120659722222225,0)" xlink:href="#N"/><use transform="matrix(0.015190972222222224,0,0,0.015190972222222224,41.25868055555556,0)" xlink:href="#aq"/><use transform="matrix(0.015190972222222224,0,0,0.015190972222222224,48.79340277777778,0)" xlink:href="#J"/><use transform="matrix(0.015190972222222224,0,0,0.015190972222222224,67.84288194444444,0)" xlink:href="#N"/><use transform="matrix(0.015190972222222224,0,0,0.015190972222222224,85.98090277777777,0)" xlink:href="#Q"/></g><path d="M180 0v-1490h270l367 940c28 72 75 218 110 339 35-117 81-264 110-339l362-940h271V0h-187c2-448-5-837 7-1287-157 497-311 829-483 1287H842C666-458 514-784 354-1284c12 438 5 843 7 1284H180" id="au"/><g id="F"><use transform="matrix(0.015190972222222224,0,0,0.015190972222222224,0,0)" xlink:href="#au"/><use transform="matrix(0.015190972222222224,0,0,0.015190972222222224,28.103298611111114,0)" xlink:href="#al"/><use transform="matrix(0.015190972222222224,0,0,0.015190972222222224,51.892361111111114,0)" xlink:href="#W"/></g><path d="M52 0l541-1490h220L1361 0h-200l-149-416H398L254 0H52zm404-582h497c-103-290-145-390-251-756-108 377-145 460-246 756" id="av"/><g id="G"><use transform="matrix(0.015190972222222224,0,0,0.015190972222222224,0,0)" xlink:href="#av"/><use transform="matrix(0.015190972222222224,0,0,0.015190972222222224,20.401475694444446,0)" xlink:href="#am"/><use transform="matrix(0.015190972222222224,0,0,0.015190972222222224,43.12717013888889,0)" xlink:href="#Q"/><use transform="matrix(0.015190972222222224,0,0,0.015190972222222224,55.32552083333334,0)" xlink:href="#ae"/><use transform="matrix(0.015190972222222224,0,0,0.015190972222222224,73.72178819444446,0)" xlink:href="#ac"/><use transform="matrix(0.015190972222222224,0,0,0.015190972222222224,81.25651041666669,0)" xlink:href="#L"/><use transform="matrix(0.015190972222222224,0,0,0.015190972222222224,91.13064236111113,0)" xlink:href="#N"/><use transform="matrix(0.015190972222222224,0,0,0.015190972222222224,109.26866319444446,0)" xlink:href="#aj"/><use transform="matrix(0.015190972222222224,0,0,0.015190972222222224,127.04210069444446,0)" xlink:href="#L"/><use transform="matrix(0.015190972222222224,0,0,0.015190972222222224,137.22005208333334,0)" xlink:href="#K"/><use transform="matrix(0.015190972222222224,0,0,0.015190972222222224,155.61631944444446,0)" xlink:href="#Q"/><use transform="matrix(0.015190972222222224,0,0,0.015190972222222224,166.81206597222226,0)" xlink:href="#N"/></g></defs></g></svg>